<?xml version="1.0" standalone="no"?>
<!DOCTYPE svg PUBLIC "-//W3C//DTD SVG 20010904//EN"
 "http://www.w3.org/TR/2001/REC-SVG-20010904/DTD/svg10.dtd">
<svg version="1.0" xmlns="http://www.w3.org/2000/svg"
 width="260.000000pt" height="260.000000pt" viewBox="0 0 260.000000 260.000000"
 preserveAspectRatio="xMidYMid meet">
<metadata>
Created by potrace 1.11, written by Peter Selinger 2001-2013
</metadata>
<g transform="translate(0.000000,260.000000) scale(0.100000,-0.100000)"
fill="#000000" stroke="none">
<path d="M778 2580 c26 -24 28 -24 36 -4 3 8 2 12 -4 9 -6 -3 -10 -1 -10 4 0
6 -10 11 -22 11 l-22 0 22 -20z"/>
<path d="M835 2590 c3 -4 -4 -15 -15 -25 -16 -15 -22 -16 -35 -5 -13 11 -21 9
-46 -9 -17 -13 -33 -20 -36 -17 -7 7 -63 -22 -63 -33 0 -5 6 -12 13 -15 6 -3
3 -4 -9 -1 -13 3 -27 -2 -40 -16 -19 -22 -19 -22 3 -10 27 14 45 14 20 0 -9
-6 -15 -14 -12 -20 4 -5 0 -9 -8 -9 -19 0 -50 -36 -42 -49 3 -6 -2 -11 -12
-11 -12 0 -22 -12 -29 -36 -8 -24 -8 -32 -1 -25 14 14 30 14 22 0 -4 -5 -18
-14 -32 -20 -13 -5 -22 -13 -19 -18 3 -5 -1 -14 -10 -22 -8 -7 -14 -22 -12
-34 1 -12 -9 -36 -25 -54 -15 -18 -27 -40 -27 -49 0 -14 2 -15 10 -2 5 8 11
12 14 9 3 -3 -6 -17 -19 -32 -25 -26 -34 -54 -15 -42 14 9 13 -8 -2 -23 -6 -6
-13 -21 -15 -33 -2 -16 1 -20 13 -15 10 4 14 2 11 -6 -2 -7 -13 -12 -25 -11
-11 1 -26 -4 -32 -12 -8 -9 -8 -15 -2 -15 6 0 13 6 15 13 4 9 7 9 14 0 9 -12
56 -6 49 6 -3 4 11 17 30 31 19 13 41 38 49 57 8 18 20 33 28 33 8 0 17 7 21
15 3 8 10 15 16 15 6 0 8 -4 5 -10 -3 -5 3 -10 15 -10 12 0 18 -4 15 -10 -3
-5 -15 -10 -26 -10 -10 0 -19 -5 -19 -11 0 -6 -8 -8 -19 -4 -11 3 -22 1 -26
-5 -3 -5 -1 -10 5 -10 19 0 -18 -43 -53 -62 -40 -21 -25 -23 39 -3 62 19 73
19 48 0 -10 -7 -53 -22 -94 -31 -104 -23 -100 -21 -93 -39 3 -9 9 -13 12 -8 7
9 73 34 78 30 1 -2 -6 -21 -17 -42 -11 -21 -18 -41 -15 -43 3 -3 5 0 5 7 0 9
4 9 14 -1 15 -14 11 -32 -5 -23 -5 4 -9 1 -9 -4 0 -6 -7 -11 -15 -11 -8 0 -15
-4 -15 -10 0 -5 -9 -10 -21 -10 -11 0 -18 -4 -14 -9 3 -5 -5 -17 -17 -25 -12
-9 -19 -16 -14 -16 5 0 1 -9 -9 -20 -10 -11 -22 -17 -26 -14 -5 3 -9 1 -9 -5
0 -5 6 -12 13 -15 6 -4 2 -4 -11 -2 -12 2 -20 0 -17 -5 3 -4 -1 -19 -10 -32
-15 -24 -15 -24 17 -21 18 2 41 7 52 10 11 4 16 2 12 -4 -3 -6 -19 -13 -35
-17 -16 -3 -32 -13 -35 -21 -3 -8 -13 -14 -22 -14 -10 0 -14 -5 -11 -14 3 -8
1 -17 -6 -20 -7 -4 6 -4 28 -2 l40 5 -30 -17 c-23 -12 -26 -17 -13 -20 9 -2
27 2 38 8 12 6 24 9 27 6 3 -2 -11 -12 -31 -20 -20 -8 -39 -22 -42 -30 -3 -8
-12 -12 -20 -9 -8 3 -14 0 -14 -6 0 -7 7 -14 15 -17 19 -8 10 -24 -13 -24 -21
0 -44 -44 -30 -58 7 -7 3 -14 -12 -22 -12 -6 -19 -14 -16 -17 3 -3 -1 -18 -9
-34 -8 -15 -15 -33 -15 -39 0 -21 18 0 45 55 16 30 32 55 36 55 8 0 -20 -62
-32 -70 -6 -5 -13 -36 -10 -52 0 -4 12 -3 26 2 24 9 25 8 25 -25 0 -46 -29
-105 -51 -105 -10 0 -20 -4 -23 -9 -4 -5 4 -7 16 -4 21 4 22 3 5 -10 -9 -8
-17 -19 -17 -25 0 -6 -14 -22 -32 -36 -18 -14 -29 -28 -25 -33 5 -4 12 -1 17
7 5 7 16 15 25 16 15 2 15 1 1 -15 -9 -10 -16 -25 -16 -35 0 -9 -6 -19 -14
-22 -8 -3 -18 -19 -21 -34 -4 -16 -20 -48 -37 -71 -56 -77 -67 -114 -66 -227
0 -99 7 -128 15 -61 4 42 32 64 50 40 11 -14 12 -14 13 7 0 12 4 22 9 22 10 0
5 -31 -9 -65 -4 -11 -11 -27 -13 -37 -3 -9 -18 -22 -34 -30 -15 -7 -29 -22
-31 -32 -4 -17 -2 -17 19 3 12 11 28 21 33 21 6 0 4 -6 -4 -13 -8 -7 -16 -19
-18 -27 -2 -8 -10 -22 -18 -31 -11 -12 -14 -56 -14 -207 l0 -192 53 0 53 0 23
63 c22 59 91 155 91 127 0 -9 5 -7 14 5 8 11 12 23 10 27 -3 5 0 8 6 8 6 0 18
7 27 15 14 14 18 14 40 -1 14 -9 22 -11 19 -5 -10 16 9 14 23 -2 6 -8 7 -18 3
-22 -4 -5 -1 -5 6 0 10 5 11 10 3 18 -6 6 -11 21 -11 34 0 13 -4 23 -10 23 -5
0 -10 5 -10 10 0 6 6 10 14 10 8 0 16 6 19 13 2 7 8 8 13 3 5 -5 4 -11 -3 -13
-18 -6 -16 -30 2 -37 8 -3 15 -10 15 -17 0 -6 -7 -8 -16 -5 -9 4 -13 2 -8 -5
3 -6 18 -9 33 -6 15 3 33 2 41 -4 13 -7 12 -9 -1 -9 -29 0 -29 -27 -1 -41 41
-21 61 -41 56 -54 -3 -6 3 -18 12 -26 11 -9 15 -9 10 -2 -5 9 -2 11 9 7 12 -5
13 -9 4 -20 -8 -10 -8 -18 0 -27 11 -14 10 -15 -39 -19 -11 -1 -20 -6 -20 -10
0 -4 9 -8 20 -8 11 0 20 -7 20 -15 0 -13 43 -15 327 -15 l327 0 -34 38 c-112
121 -134 146 -120 134 7 -6 22 -12 32 -12 10 0 30 -19 45 -42 65 -101 82 -118
123 -118 33 0 39 4 46 28 4 15 9 35 10 46 1 10 8 22 15 27 8 5 9 9 4 9 -6 0
-16 -5 -22 -11 -8 -8 -13 -7 -18 2 -5 8 -4 10 3 5 7 -4 12 -3 12 3 0 5 -8 15
-17 20 -14 8 -10 9 16 4 31 -6 33 -5 20 9 -8 9 -16 14 -18 12 -2 -2 -12 3 -22
12 -11 10 -26 14 -36 10 -16 -5 -15 -4 1 9 18 13 15 19 -6 16 -4 0 -12 8 -18
19 -6 11 -8 20 -5 20 13 0 75 -56 75 -68 0 -6 3 -11 8 -10 4 0 15 -2 25 -7 23
-10 28 -4 29 34 1 17 5 31 9 31 17 0 28 38 20 68 -6 20 -5 34 2 42 9 9 7 11
-9 6 -14 -4 -26 -1 -35 10 -11 13 -11 15 2 14 30 -5 39 1 39 23 0 17 10 28 35
40 19 9 35 21 35 26 0 6 -44 37 -97 70 -54 33 -113 71 -132 85 -19 14 -49 28
-67 32 -18 3 -42 17 -55 30 -22 23 -22 24 -3 46 43 52 81 91 116 119 l36 29 7
-57 c10 -86 32 -159 59 -189 l23 -28 34 21 c21 12 33 26 31 37 -2 9 11 33 27
52 17 19 31 39 31 45 0 24 73 178 145 304 62 109 79 132 90 122 7 -7 11 -15 8
-20 -2 -4 1 -7 7 -7 7 0 9 8 5 19 -3 11 -1 22 5 26 5 3 10 11 10 17 0 6 -7 5
-17 -3 -16 -13 -17 -12 -5 3 8 10 22 15 38 12 13 -2 24 0 24 6 0 5 7 10 15 10
8 0 22 9 32 20 21 22 65 18 56 -6 -3 -8 0 -14 6 -14 6 0 11 -5 11 -11 0 -6
-10 -9 -22 -8 -39 5 -105 -45 -131 -101 -13 -27 -21 -50 -16 -50 4 0 9 6 12
13 4 13 46 -29 47 -48 0 -14 66 -11 85 5 8 7 12 17 8 23 -4 6 4 7 22 3 25 -6
26 -6 11 9 -15 16 -19 15 -54 -2 -47 -24 -72 -19 -72 13 0 13 3 23 8 22 4 -1
16 3 27 9 11 6 36 14 55 18 47 10 82 35 75 53 -3 10 0 12 10 8 8 -3 15 -1 15
4 0 6 6 10 14 10 8 0 17 7 20 16 3 9 2 12 -5 9 -6 -4 -9 -1 -8 6 1 8 -3 32 -9
54 -16 54 -16 83 0 67 19 -19 33 -14 16 6 -9 9 -13 23 -11 30 3 6 0 12 -6 12
-13 0 -25 64 -16 87 5 15 9 12 21 -15 24 -58 52 -91 73 -85 22 5 48 53 29 53
-11 0 -2 14 10 16 30 3 64 19 79 36 18 20 18 21 -7 13 l-25 -8 20 24 20 24
-21 -17 c-26 -23 -73 -25 -54 -3 6 8 9 23 6 33 -10 29 22 37 48 13 25 -24 45
-15 52 22 3 22 1 25 -12 20 -11 -4 -15 -2 -10 5 3 6 2 13 -3 16 -5 4 -12 2
-16 -4 -3 -5 -11 -10 -17 -10 -6 0 -3 9 7 20 10 11 14 20 10 20 -5 0 -1 6 9
13 13 9 16 20 11 40 -8 31 -17 34 -35 12 -23 -27 -29 -5 -9 30 12 19 16 35 11
35 -6 0 -12 -6 -15 -12 -3 -9 -7 -7 -12 6 -5 11 -3 21 5 26 7 4 9 13 6 19 -4
6 0 14 8 17 8 3 20 30 27 60 7 30 15 54 19 54 15 0 61 54 56 66 -3 7 6 20 20
28 13 9 24 25 24 36 0 25 -15 26 -32 1 -8 -11 -27 -22 -43 -26 l-30 -6 33 15
c17 8 32 20 32 26 0 6 -11 5 -29 -4 -26 -14 -30 -14 -41 0 -7 8 -15 12 -18 9
-3 -2 1 -11 8 -20 7 -8 8 -15 3 -15 -17 0 -55 -39 -48 -49 4 -7 0 -8 -10 -5
-11 5 -15 14 -11 28 l5 21 -17 -21 c-9 -12 -22 -30 -29 -40 -10 -16 -11 -14
-6 16 3 19 11 46 16 60 10 26 13 35 15 59 2 11 6 11 21 -3 18 -16 19 -16 19 6
0 55 6 87 14 82 11 -7 -1 47 -13 60 -5 6 -10 -3 -10 -22 -1 -18 -3 -36 -4 -42
-1 -5 -3 -14 -4 -20 0 -5 -8 -7 -16 -4 -10 4 -12 10 -7 18 5 6 8 36 7 66 -3
68 -3 68 -16 50 -8 -12 -9 -8 -5 15 3 17 3 24 0 18 -3 -7 -10 -13 -15 -13 -6
0 -8 4 -4 9 3 5 1 12 -5 16 -6 4 -8 10 -5 14 5 9 -16 28 -52 49 -27 15 -36 15
-28 2 3 -5 0 -10 -9 -10 -8 0 -16 5 -18 11 -6 19 -67 -20 -68 -43 0 -4 6 -5
13 -2 8 3 19 -1 26 -9 10 -12 6 -14 -21 -8 -29 6 -33 10 -30 36 4 26 2 28 -12
15 -10 -7 -14 -20 -11 -29 4 -10 -2 -8 -14 6 -12 12 -21 27 -21 34 0 7 -9 9
-21 6 -12 -3 -32 1 -44 9 -13 8 -30 11 -40 8 -14 -6 -16 -4 -10 7 5 8 -2 5
-15 -6 -17 -15 -24 -17 -27 -7 -4 10 -10 10 -28 -2 -20 -13 -24 -13 -29 -1 -7
19 -44 19 -65 1 -9 -7 -29 -16 -46 -20 -28 -6 -29 -6 -10 9 11 9 25 13 32 11
7 -3 13 0 13 5 0 7 -10 9 -25 5 -66 -16 -80 -18 -65 -7 11 8 2 11 -37 11 -38
0 -53 -4 -53 -13 0 -8 -11 -19 -25 -25 -31 -14 -33 1 -3 22 12 9 18 16 13 16
-6 0 -3 5 5 10 9 6 10 10 3 10 -6 0 -15 -4 -18 -10 -3 -5 -16 -10 -28 -10 -18
0 -19 2 -7 10 11 7 6 10 -20 9 -27 0 -31 -2 -15 -8 19 -8 19 -8 -2 -19 -21
-12 -53 -7 -53 8 0 4 -17 10 -37 13 -21 2 -53 11 -71 18 l-34 14 66 2 c36 1
66 -2 66 -7 0 -5 -6 -7 -14 -4 -8 3 -17 1 -20 -4 -5 -8 3 -9 50 -3 7 0 20 13
29 28 17 25 17 26 0 19 -22 -8 -85 3 -85 15 0 5 10 5 23 1 24 -9 94 -8 102 0
3 3 -22 10 -55 15 -52 8 -64 7 -80 -7 -11 -9 -17 -20 -13 -24 10 -9 -10 -7
-27 4 -8 5 -11 12 -7 16 4 4 2 13 -4 21 -15 17 -164 19 -153 1 4 -7 3 -8 -5
-4 -16 11 -62 15 -56 6z m-135 -75 c0 -8 -4 -15 -10 -15 -5 0 -7 7 -4 15 4 8
8 15 10 15 2 0 4 -7 4 -15z m225 -15 c-3 -5 -11 -10 -16 -10 -6 0 -7 5 -4 10
3 6 11 10 16 10 6 0 7 -4 4 -10z m-215 -30 c13 -9 13 -10 0 -10 -8 0 -22 5
-30 10 -13 9 -13 10 0 10 8 0 22 -5 30 -10z m334 -4 c-23 -7 -47 -17 -55 -21
-8 -4 -5 1 6 13 13 13 32 21 55 21 l35 0 -41 -13z m-294 -6 c0 -5 -4 -10 -10
-10 -5 0 -10 5 -10 10 0 6 5 10 10 10 6 0 10 -4 10 -10z m-87 -21 c-4 -15 -9
-17 -17 -9 -8 8 -7 13 4 20 8 5 16 10 17 10 0 0 -1 -9 -4 -21z m487 17 c0 -2
-7 -7 -16 -10 -8 -3 -12 -2 -9 4 6 10 25 14 25 6z m-345 -16 c-3 -5 -10 -10
-16 -10 -5 0 -9 5 -9 10 0 6 7 10 16 10 8 0 12 -4 9 -10z m152 -13 c4 -7 0 -8
-11 -4 -10 4 -22 7 -27 7 -5 0 -9 4 -9 9 0 12 38 2 47 -12z m256 6 c3 -5 -6
-9 -20 -10 -19 -1 -22 1 -12 8 17 11 26 11 32 2z m323 -9 c-3 -8 -2 -13 2 -11
4 3 16 1 27 -3 17 -6 17 -7 -7 -12 -20 -4 -29 0 -37 19 -9 19 -8 23 5 23 11 0
14 -6 10 -16z m-908 -28 c-10 -7 -15 -16 -11 -19 3 -4 -1 -7 -10 -7 -9 0 -17
2 -17 5 0 9 44 44 49 39 3 -3 -2 -11 -11 -18z m613 10 c-6 -8 -25 -19 -41 -26
-17 -7 -30 -16 -30 -21 0 -4 -10 -11 -22 -15 -13 -3 -31 -13 -40 -22 -20 -17
-25 -3 -6 16 7 7 8 12 2 12 -6 0 -14 -4 -19 -9 -17 -16 -82 -24 -90 -11 -5 9
-1 10 13 6 23 -8 92 18 92 33 0 6 7 11 16 11 8 0 13 4 10 9 -3 5 1 12 10 15 8
3 12 2 9 -4 -7 -12 66 -3 79 10 15 15 30 12 17 -4z m514 -4 c-3 -3 -11 0 -18
7 -9 10 -8 11 6 5 10 -3 15 -9 12 -12z m-696 -11 c-12 -17 -49 -46 -49 -36 0
4 53 55 57 55 2 0 -2 -8 -8 -19z m-379 5 c0 -3 -4 -8 -10 -11 -5 -3 -10 -1
-10 4 0 6 5 11 10 11 6 0 10 -2 10 -4z m630 -21 c0 -2 -6 -5 -13 -8 -8 -3 -14
1 -14 8 0 7 6 11 14 8 7 -3 13 -6 13 -8z m47 9 c-3 -3 -12 -4 -19 -1 -8 3 -5
6 6 6 11 1 17 -2 13 -5z m610 0 c-3 -3 -12 -4 -19 -1 -8 3 -5 6 6 6 11 1 17
-2 13 -5z m-1197 -14 c0 -6 -11 -8 -27 -4 -40 10 -41 14 -5 14 18 0 32 -5 32
-10z m-120 -4 c0 -3 -4 -8 -10 -11 -5 -3 -10 -1 -10 4 0 6 5 11 10 11 6 0 10
-2 10 -4z m1190 -13 c-8 -3 -26 -15 -39 -27 l-24 -21 12 22 c11 22 26 31 51
31 13 0 13 0 0 -5z m-837 -36 c33 -22 33 -24 14 -33 -27 -12 -37 -40 -11 -30
11 5 24 9 29 10 6 1 16 5 22 9 9 6 11 3 7 -8 -4 -9 -12 -14 -18 -12 -6 2 -20
0 -31 -6 -19 -10 -19 -10 0 -18 17 -7 17 -8 -5 -6 -36 3 -40 -17 -5 -25 22 -5
19 -6 -15 -3 -25 2 -50 -1 -56 -6 -5 -4 -27 -6 -48 -2 -24 4 -33 9 -25 14 10
6 5 11 -15 19 -34 13 -122 3 -141 -16 -7 -8 -17 -14 -22 -14 -5 0 -24 -14 -43
-30 -32 -28 -33 -30 -10 -24 14 3 32 12 40 19 10 9 23 10 38 4 30 -11 28 -20
-5 -17 -16 1 -40 -6 -54 -15 -15 -10 -31 -17 -35 -15 -25 6 -76 -17 -94 -43
-17 -23 -24 -26 -35 -16 -11 10 -10 14 6 21 10 5 19 15 19 21 0 7 10 15 22 18
l21 6 -24 21 -24 21 25 -15 c22 -13 28 -13 50 0 14 9 17 13 8 10 -23 -7 -23 3
0 20 21 16 36 18 27 3 -4 -6 2 -5 14 3 20 12 20 14 4 26 -14 10 -14 12 -2 12
8 0 20 -5 25 -10 8 -8 18 -5 35 9 25 21 20 28 -10 12 -13 -7 -18 -6 -18 3 0 9
13 12 38 11 36 -2 56 13 50 38 -1 5 8 6 19 2 21 -7 28 10 8 18 -8 3 -7 6 4 6
9 1 19 -3 23 -8 3 -5 22 -15 43 -22 20 -6 40 -17 44 -23 5 -8 8 -7 8 2 0 6 5
12 11 12 5 0 8 -4 4 -10 -10 -16 56 -2 76 16 24 22 16 33 -20 28 -30 -5 -47 8
-36 26 10 16 32 12 68 -13z m-86 -2 c0 -11 -6 -13 -20 -9 -13 4 -17 2 -13 -5
4 -6 19 -12 34 -12 25 -2 25 -2 4 -6 -14 -3 -32 3 -44 14 -20 18 -20 18 4 24
34 10 35 10 35 -6z m1153 -9 c0 -3 -4 -8 -10 -11 -5 -3 -10 -1 -10 4 0 6 5 11
10 11 6 0 10 -2 10 -4z m-917 -33 c-7 -2 -21 -2 -30 0 -10 3 -4 5 12 5 17 0
24 -2 18 -5z m542 -33 c-3 -5 -12 -10 -18 -10 -7 0 -6 4 3 10 19 12 23 12 15
0z m-861 -39 c4 -5 -3 -7 -14 -4 -23 6 -26 13 -6 13 8 0 17 -4 20 -9z m1151
-7 c-11 -8 -28 -13 -38 -10 -9 2 -15 0 -12 -4 7 -11 -7 -20 -38 -22 -14 -1
-23 -7 -20 -14 2 -6 -8 -15 -24 -18 -40 -10 -75 -35 -67 -48 4 -7 -1 -8 -16
-3 -16 5 -21 4 -18 -6 3 -8 13 -13 22 -13 9 1 16 -2 16 -7 0 -5 -12 -10 -27
-10 -17 -1 -21 -3 -10 -6 9 -2 17 -7 17 -9 0 -8 -33 -39 -41 -39 -4 0 -11 -4
-16 -9 -4 -5 1 -7 14 -3 19 4 22 1 21 -21 -3 -32 -23 -56 -39 -46 -9 5 -10 1
-6 -14 4 -12 10 -32 14 -44 4 -15 3 -19 -5 -14 -8 4 -12 0 -12 -11 0 -10 -3
-29 -7 -42 -5 -19 -3 -22 8 -16 8 4 -6 -13 -31 -38 -42 -41 -51 -45 -110 -51
-79 -8 -113 -16 -121 -28 -3 -5 -9 4 -12 21 -8 38 -48 58 -83 42 -13 -5 -43
-48 -70 -98 -115 -214 -329 -549 -383 -599 -18 -17 -37 -24 -64 -24 l-38 0 6
38 c12 75 15 82 40 88 27 7 32 23 13 43 -11 11 -10 13 2 9 8 -3 21 -15 28 -29
13 -23 13 -22 6 10 -5 29 -4 33 10 28 10 -4 15 -3 11 3 -3 6 -2 10 4 10 5 0
13 -12 18 -27 l10 -28 12 24 c7 13 11 37 8 55 -2 17 3 54 13 81 10 28 22 68
26 90 4 22 9 48 11 58 2 10 0 16 -4 14 -9 -6 -11 179 -3 185 3 2 25 13 50 23
49 21 144 85 136 92 -2 3 -13 0 -24 -6 -34 -18 -36 -13 -8 16 27 26 27 27 7
35 -12 4 -21 10 -21 12 0 16 25 56 34 56 7 0 19 9 28 19 14 17 14 20 2 25 -8
3 -12 2 -9 -3 6 -12 -33 -41 -55 -41 -9 0 -11 3 -5 8 6 4 18 23 28 43 10 20
30 49 45 65 21 22 28 25 30 12 5 -25 78 -11 138 27 36 23 55 30 67 24 10 -6
18 -5 22 1 4 6 10 8 15 5 5 -3 11 -1 15 5 3 5 11 10 17 10 6 0 3 -10 -8 -22
-10 -13 -12 -17 -4 -10 8 6 21 12 29 12 8 0 28 12 43 27 23 22 28 24 28 10 0
-14 4 -16 19 -8 29 16 32 1 5 -27 -13 -15 -24 -34 -24 -42 0 -24 48 40 61 81
8 27 20 40 45 49 23 9 30 16 22 21 -13 9 3 17 32 17 8 0 27 3 42 6 21 5 26 3
22 -8 -4 -11 0 -13 15 -9 12 3 21 9 21 14 0 5 6 6 13 4 6 -3 23 1 37 8 14 7
41 13 60 14 33 1 34 0 15 -13z m-1075 -36 c0 -6 -7 -8 -15 -4 -8 3 -15 0 -15
-6 0 -7 -5 -6 -15 2 -8 7 -13 16 -10 20 6 10 55 0 55 -12z m592 -80 c-6 -6
-15 -8 -19 -4 -4 4 -1 11 7 16 19 12 27 3 12 -12z m-748 -13 c-25 -19 -134
-77 -134 -72 0 6 100 67 109 67 5 0 14 7 21 15 7 9 15 13 18 10 3 -3 -3 -12
-14 -20z m1406 -60 c-7 -8 -17 -15 -23 -15 -6 0 -2 7 9 15 25 19 30 19 14 0z
m-1552 -20 c-3 -3 -9 2 -12 12 -6 14 -5 15 5 6 7 -7 10 -15 7 -18z m1573 2
c-10 -9 -11 -8 -5 6 3 10 9 15 12 12 3 -3 0 -11 -7 -18z m-1686 -87 c-3 -5
-12 -10 -18 -10 -7 0 -6 4 3 10 19 12 23 12 15 0z m45 -16 c0 -2 -7 -4 -15 -4
-8 0 -15 4 -15 10 0 5 7 7 15 4 8 -4 15 -8 15 -10z m1170 -148 c0 -2 -8 -10
-17 -17 -16 -13 -17 -12 -4 4 13 16 21 21 21 13z m-256 -161 c-18 -14 -17 -14
16 -16 19 -1 46 -1 60 0 20 1 22 -1 10 -9 -8 -5 -20 -10 -27 -10 -7 0 -35 -13
-63 -30 -53 -31 -55 -30 -44 30 4 19 15 35 28 40 33 14 42 11 20 -5z m136
-129 c-11 -14 -40 -22 -40 -12 0 3 5 17 10 32 10 25 12 26 27 11 13 -13 14
-19 3 -31z m-160 -40 c-16 -16 -12 -26 11 -26 11 0 17 4 14 10 -3 6 1 7 10 4
13 -5 13 -9 3 -22 -11 -13 -10 -15 5 -9 9 3 17 2 17 -3 0 -6 -5 -10 -12 -10
-9 0 -9 -3 -1 -11 9 -9 -2 -24 -40 -62 -29 -27 -43 -46 -32 -43 17 6 17 4 -4
-18 -14 -14 -26 -24 -29 -21 -4 4 17 205 23 215 2 3 13 6 24 6 14 0 17 -4 11
-10z m-154 -148 c-4 -62 -12 -117 -18 -123 -7 -7 -9 -2 -5 15 3 14 9 69 12
123 4 53 10 97 13 97 2 0 2 -51 -2 -112z m-1014 7 c3 -14 1 -25 -3 -25 -5 0
-9 11 -9 25 0 14 2 25 4 25 2 0 6 -11 8 -25z m963 -118 l-7 -135 -111 -111
c-105 -104 -113 -110 -121 -89 -4 13 -12 31 -18 42 -8 14 0 33 39 90 26 39 50
76 53 82 14 30 165 262 168 259 3 -2 1 -65 -3 -138z m669 102 c-8 -13 -21 -11
-27 5 -4 10 0 12 14 9 10 -3 16 -9 13 -14z m-506 -150 c-12 -16 -24 -25 -26
-19 -4 12 26 50 40 50 5 0 -2 -14 -14 -31z m-131 -36 c-3 -10 -5 -2 -5 17 0
19 2 27 5 18 2 -10 2 -26 0 -35z m133 -8 c0 -2 -10 -10 -22 -16 -21 -11 -22
-11 -9 4 13 16 31 23 31 12z m1 -144 l-36 -89 -3 60 c-3 58 -1 62 30 89 18 15
36 28 39 29 4 0 -10 -40 -30 -89z m-131 69 c0 -5 -5 -10 -11 -10 -5 0 -7 5 -4
10 3 6 8 10 11 10 2 0 4 -4 4 -10z m-49 -47 c-11 -22 -81 -90 -81 -80 0 8 80
97 87 97 2 0 -1 -8 -6 -17z m9 -26 c0 -2 -12 -14 -26 -28 l-27 -24 18 28 c14
22 35 36 35 24z m-1082 -107 c-7 -10 -14 -18 -15 -16 -6 6 9 36 18 36 5 0 4
-9 -3 -20z m-11 -67 c-8 -16 -20 -48 -27 -72 -7 -28 -15 -40 -21 -34 -6 6 -5
20 5 39 8 16 20 44 27 62 6 17 16 32 21 32 5 0 3 -12 -5 -27z m-52 -53 c-3 -5
-12 -7 -19 -4 -8 3 -18 -8 -26 -27 -8 -18 -16 -27 -18 -21 -2 6 9 29 25 51 21
30 30 36 36 25 4 -8 5 -18 2 -24z m1028 -111 c68 -78 68 -79 37 -76 -17 2 -36
10 -43 17 -10 10 -9 11 3 5 13 -8 13 -6 1 8 -7 9 -17 15 -21 12 -9 -6 -24 13
-25 30 -1 6 -6 9 -12 8 -6 -1 -19 7 -28 17 -16 17 -16 20 -2 20 10 0 13 6 10
20 -9 35 10 20 80 -61z m37 18 c0 -4 5 -5 10 -2 6 4 9 1 8 -7 -2 -7 3 -12 10
-10 6 1 12 -5 12 -13 0 -22 -10 -19 -47 17 -37 36 -44 55 -13 36 11 -7 20 -16
20 -21z m-740 -227 c0 -5 -5 -10 -11 -10 -5 0 -7 5 -4 10 3 6 8 10 11 10 2 0
4 -4 4 -10z m30 -54 c-6 -17 -5 -26 3 -30 9 -3 8 -7 -3 -15 -11 -8 -16 -7 -18
4 -2 8 -8 15 -13 15 -5 0 -9 5 -9 11 0 6 7 8 16 5 11 -4 15 -2 11 8 -6 15 1
26 14 26 5 0 4 -11 -1 -24z m-100 -49 c0 -16 -18 3 -23 25 -6 22 -5 22 8 4 8
-11 15 -24 15 -29z m140 23 c0 -5 -2 -10 -4 -10 -3 0 -8 5 -11 10 -3 6 -1 10
4 10 6 0 11 -4 11 -10z m-10 -64 c0 -3 -4 -8 -10 -11 -5 -3 -10 -1 -10 4 0 6
5 11 10 11 6 0 10 -2 10 -4z m85 -46 c3 -5 1 -10 -4 -10 -6 0 -11 5 -11 10 0
6 2 10 4 10 3 0 8 -4 11 -10z m5 -144 c0 -3 -4 -8 -10 -11 -5 -3 -10 -1 -10 4
0 6 5 11 10 11 6 0 10 -2 10 -4z"/>
<path d="M1128 2373 c-10 -2 -18 -9 -18 -14 0 -13 13 -11 36 6 19 14 14 17
-18 8z"/>
<path d="M1770 2159 c0 -5 -4 -7 -10 -4 -5 3 -10 1 -10 -4 0 -14 10 -13 40 4
25 14 25 14 3 15 -13 0 -23 -5 -23 -11z"/>
<path d="M1796 2135 c-26 -19 -2 -19 39 0 29 13 29 13 5 14 -14 0 -34 -6 -44
-14z"/>
<path d="M1737 2113 c-12 -11 -8 -23 9 -23 8 0 13 4 10 9 -4 5 0 12 6 14 9 4
8 6 -3 6 -9 1 -19 -2 -22 -6z"/>
<path d="M1688 2103 c7 -3 16 -2 19 1 4 3 -2 6 -13 5 -11 0 -14 -3 -6 -6z"/>
<path d="M1551 1989 c-13 -11 -22 -22 -19 -24 2 -3 15 6 28 20 28 30 24 32 -9
4z"/>
<path d="M1216 1973 c-4 -9 -3 -20 2 -25 4 -4 9 4 10 17 2 29 -3 32 -12 8z"/>
<path d="M1570 1959 c-7 -11 -10 -23 -7 -25 2 -2 9 7 15 21 14 30 7 33 -8 4z"/>
<path d="M1167 1913 c-4 -3 -7 -11 -7 -17 0 -6 5 -5 12 2 6 6 9 14 7 17 -3 3
-9 2 -12 -2z"/>
<path d="M971 1224 c0 -11 3 -14 6 -6 3 7 2 16 -1 19 -3 4 -6 -2 -5 -13z"/>
<path d="M1070 2585 c0 -8 3 -15 6 -15 3 0 12 7 20 15 14 13 13 15 -5 15 -12
0 -21 -6 -21 -15z"/>
<path d="M705 2580 c3 -5 8 -10 11 -10 2 0 4 5 4 10 0 6 -5 10 -11 10 -5 0 -7
-4 -4 -10z"/>
<path d="M1245 2580 c3 -5 11 -10 16 -10 6 0 7 5 4 10 -3 6 -11 10 -16 10 -6
0 -7 -4 -4 -10z"/>
<path d="M1697 2579 c7 -7 15 -10 18 -7 3 3 -2 9 -12 12 -14 6 -15 5 -6 -5z"/>
<path d="M670 2550 c-18 -12 -2 -12 25 0 13 6 15 9 5 9 -8 0 -22 -4 -30 -9z"/>
<path d="M1720 2549 c11 -8 12 -12 2 -16 -17 -7 -5 -23 19 -23 11 0 18 -4 14
-9 -3 -5 8 -19 24 -30 34 -25 65 -29 35 -5 -10 8 -14 13 -9 10 6 -2 17 -1 24
3 23 14 -53 81 -92 81 -25 0 -29 -3 -17 -11z"/>
<path d="M1220 2529 c0 -5 5 -7 10 -4 6 3 10 8 10 11 0 2 -4 4 -10 4 -5 0 -10
-5 -10 -11z"/>
<path d="M1335 2500 c-3 -5 -1 -10 4 -10 6 0 11 5 11 10 0 6 -2 10 -4 10 -3 0
-8 -4 -11 -10z"/>
<path d="M1378 2493 c7 -3 16 -2 19 1 4 3 -2 6 -13 5 -11 0 -14 -3 -6 -6z"/>
<path d="M1430 2490 c-13 -8 -12 -10 3 -10 9 0 17 5 17 10 0 12 -1 12 -20 0z"/>
<path d="M1580 2490 c-8 -5 -10 -10 -5 -10 6 0 17 5 25 10 8 5 11 10 5 10 -5
0 -17 -5 -25 -10z"/>
<path d="M1176 2477 c3 -10 9 -15 12 -12 3 3 0 11 -7 18 -10 9 -11 8 -5 -6z"/>
<path d="M435 2180 c-3 -5 -2 -10 4 -10 5 0 13 5 16 10 3 6 2 10 -4 10 -5 0
-13 -4 -16 -10z"/>
<path d="M2316 2075 c-11 -8 -15 -15 -9 -15 6 0 16 7 23 15 16 19 11 19 -14 0z"/>
<path d="M427 1883 c-4 -3 -7 -11 -7 -17 0 -6 5 -5 12 2 6 6 9 14 7 17 -3 3
-9 2 -12 -2z"/>
<path d="M386 1870 c-11 -3 -15 -9 -10 -13 10 -6 42 9 34 16 -3 3 -14 1 -24
-3z"/>
<path d="M344 1835 c11 -8 22 -12 25 -9 6 6 -19 24 -34 24 -5 -1 -1 -7 9 -15z"/>
<path d="M320 1801 c0 -17 15 -19 28 -5 11 12 9 14 -8 14 -11 0 -20 -4 -20 -9z"/>
<path d="M296 1735 c-3 -8 -1 -15 4 -15 6 0 10 7 10 15 0 8 -2 15 -4 15 -2 0
-6 -7 -10 -15z"/>
<path d="M141 1204 c0 -11 3 -14 6 -6 3 7 2 16 -1 19 -3 4 -6 -2 -5 -13z"/>
<path d="M1640 1139 c0 -5 5 -7 10 -4 6 3 10 8 10 11 0 2 -4 4 -10 4 -5 0 -10
-5 -10 -11z"/>
<path d="M1926 972 c-3 -5 -19 -9 -36 -10 -40 -1 -53 -10 -37 -26 9 -11 14
-11 19 -1 5 8 23 11 56 7 36 -3 51 0 61 12 12 14 11 16 -7 16 -11 0 -27 3 -35
6 -8 3 -18 1 -21 -4z"/>
<path d="M110 949 c0 -5 5 -7 10 -4 6 3 10 8 10 11 0 2 -4 4 -10 4 -5 0 -10
-5 -10 -11z"/>
<path d="M1915 918 c-60 -20 -61 -20 -35 -27 34 -10 85 2 85 19 0 18 -14 20
-50 8z"/>
<path d="M1984 913 c10 -11 36 -12 36 -2 0 5 -10 9 -22 9 -12 0 -18 -3 -14 -7z"/>
<path d="M1900 862 c0 -12 19 -26 26 -19 2 2 -2 10 -11 17 -9 8 -15 8 -15 2z"/>
<path d="M1986 861 c-4 -5 -1 -11 5 -13 26 -9 -17 -48 -67 -63 -67 -19 -81
-19 -93 3 -6 9 -11 11 -11 5 0 -19 -46 -16 -65 4 -16 15 -16 17 0 26 9 5 30 7
46 5 16 -3 29 -1 29 4 0 4 10 8 22 8 14 0 18 4 13 9 -10 10 -40 5 -177 -32
-63 -17 -78 -24 -78 -40 0 -15 5 -18 24 -13 14 3 28 1 31 -4 4 -6 10 -8 15 -5
4 3 10 -2 14 -10 4 -11 14 -13 37 -8 25 5 31 3 27 -8 -3 -8 -11 -13 -17 -11
-7 1 -9 -2 -6 -8 5 -8 13 -6 26 6 10 9 19 12 19 6 0 -5 9 -8 20 -5 11 3 20 0
20 -6 0 -6 7 -11 15 -11 8 0 15 -4 15 -9 0 -5 14 -8 30 -7 30 1 44 16 15 16
-8 0 -15 5 -15 11 0 6 7 8 16 5 9 -3 12 -2 8 5 -4 7 3 9 17 7 16 -2 23 1 21
11 -2 9 3 11 14 7 12 -5 29 5 55 32 20 22 44 42 53 45 26 10 18 23 -23 35 -46
14 -48 14 -55 3z"/>
<path d="M47 573 c-4 -3 -7 -11 -7 -17 0 -6 5 -5 12 2 6 6 9 14 7 17 -3 3 -9
2 -12 -2z"/>
<path d="M390 195 c7 -9 15 -13 17 -11 7 7 -7 26 -19 26 -6 0 -6 -6 2 -15z"/>
<path d="M500 79 c0 -5 5 -7 10 -4 6 3 10 8 10 11 0 2 -4 4 -10 4 -5 0 -10 -5
-10 -11z"/>
</g>
</svg>
